HIERARCHY
ROOT Hips
{
	OFFSET 0.000000 0.000000 0.000000
	CHANNELS 6 Xposition Yposition Zposition Xrotation Yrotation Zrotation
	JOINT LeftUpLeg_virtual
	{
		OFFSET 0.000000 0.000000 0.000000
		CHANNELS 3 Xrotation Yrotation Zrotation
		JOINT LeftUpLeg
		{
			OFFSET 13.026900 -6.336304 -1.092800
			CHANNELS 3 Xrotation Yrotation Zrotation
			JOINT LeftLeg
			{
				OFFSET 0.524474 -46.096886 9.782700
				CHANNELS 3 Xrotation Yrotation Zrotation
				JOINT LeftFoot
				{
					OFFSET -0.524474 -53.427422 -12.948200
					CHANNELS 3 Xrotation Yrotation Zrotation
					JOINT LeftToeBase
					{
						OFFSET 0.192200 -14.009700 16.364100
						CHANNELS 3 Xrotation Yrotation Zrotation
						JOINT LeftToe_End
						{
							OFFSET -1.784700 -0.561700 9.474800
							CHANNELS 3 Xrotation Yrotation Zrotation
							End Site
							{
								OFFSET 0 0 0
							}
						}
					}
				}
			}
		}
	}
	JOINT RightUpLeg_virtual
	{
		OFFSET 0.000000 0.000000 0.000000
		CHANNELS 3 Xrotation Yrotation Zrotation
		JOINT RightUpLeg
		{
			OFFSET -12.883000 -6.336304 -1.092800
			CHANNELS 3 Xrotation Yrotation Zrotation
			JOINT RightLeg
			{
				OFFSET -0.524587 -46.096825 9.782800
				CHANNELS 3 Xrotation Yrotation Zrotation
				JOINT RightFoot
				{
					OFFSET 0.524587 -53.427383 -12.948300
					CHANNELS 3 Xrotation Yrotation Zrotation
					JOINT RightToeBase
					{
						OFFSET -0.192200 -14.009700 16.364100
						CHANNELS 3 Xrotation Yrotation Zrotation
						JOINT RightToe_End
						{
							OFFSET 1.784700 -0.561700 9.474800
							CHANNELS 3 Xrotation Yrotation Zrotation
							End Site
							{
								OFFSET 0 0 0
							}
						}
					}
				}
			}
		}
	}
	JOINT Spine_virtual
	{
		OFFSET 0.000000 0.000000 0.000000
		CHANNELS 3 Xrotation Yrotation Zrotation
		JOINT Spine
		{
			OFFSET 0.072000 7.257294 -0.789700
			CHANNELS 3 Xrotation Yrotation Zrotation
			JOINT Spine1
			{
				OFFSET 0.000000 12.508769 -0.658067
				CHANNELS 3 Xrotation Yrotation Zrotation
				JOINT Spine1_split
				{
					OFFSET 0.000000 12.508769 -0.658067
					CHANNELS 3 Xrotation Yrotation Zrotation
					JOINT Spine2
					{
						OFFSET 0.000000 12.508769 -0.658067
						CHANNELS 3 Xrotation Yrotation Zrotation
						JOINT Neck_virtual
						{
							OFFSET 0.000000 0.000000 0.000000
							CHANNELS 3 Xrotation Yrotation Zrotation
							JOINT Neck
							{
								OFFSET 0.000000 14.033295 7.520400
								CHANNELS 3 Xrotation Yrotation Zrotation
								JOINT Head
								{
									OFFSET 0.000000 8.198502 5.703100
									CHANNELS 3 Xrotation Yrotation Zrotation
									JOINT HeadTop_End
									{
										OFFSET 0.000000 17.760803 13.332701
										CHANNELS 3 Xrotation Yrotation Zrotation
										End Site
										{
											OFFSET 0 0 0
										}
									}
								}
							}
						}
						JOINT LeftShoulder_virtual
						{
							OFFSET 0.000000 0.000000 0.000000
							CHANNELS 3 Xrotation Yrotation Zrotation
							JOINT LeftShoulder
							{
								OFFSET 6.292450 5.785301 -0.669000
								CHANNELS 3 Xrotation Yrotation Zrotation
								JOINT LeftShoulder_split
								{
									OFFSET 6.292450 5.785301 -0.669000
									CHANNELS 3 Xrotation Yrotation Zrotation
									JOINT LeftArm
									{
										OFFSET 13.907140 -6.093903 1.965100
										CHANNELS 3 Xrotation Yrotation Zrotation
										JOINT LeftForeArm
										{
											OFFSET 34.140198 0.000000 0.000000
											CHANNELS 3 Xrotation Yrotation Zrotation
											JOINT LeftHand
											{
												OFFSET 40.960209 0.000000 0.000000
												CHANNELS 3 Xrotation Yrotation Zrotation
												End Site
												{
													OFFSET 0 0 0
												}
											}
										}
									}
								}
							}
						}
						JOINT RightShoulder_virtual
						{
							OFFSET 0.000000 0.000000 0.000000
							CHANNELS 3 Xrotation Yrotation Zrotation
							JOINT RightShoulder
							{
								OFFSET -6.292450 5.785301 -0.669000
								CHANNELS 3 Xrotation Yrotation Zrotation
								JOINT RightShoulder_split
								{
									OFFSET -6.292450 5.785301 -0.669000
									CHANNELS 3 Xrotation Yrotation Zrotation
									JOINT RightArm
									{
										OFFSET -13.907140 -6.093903 1.965100
										CHANNELS 3 Xrotation Yrotation Zrotation
										JOINT RightForeArm
										{
											OFFSET -34.140198 0.000000 0.000000
											CHANNELS 3 Xrotation Yrotation Zrotation
											JOINT RightHand
											{
												OFFSET -40.960209 0.000000 0.000000
												CHANNELS 3 Xrotation Yrotation Zrotation
												End Site
												{
													OFFSET 0 0 0
												}
											}
										}
									}
								}
							}
						}
					}
				}
			}
		}
	}
}
MOTION
Frames: 5
Frame Time: 0.03333333
5.028129 119.318268 -15.340939 0.000000 0.000000 0.000000 -1.331062 9.667156 4.244762 -2.798344 17.832577 5.458733 8.504799 4.622480 1.109844 -3.031617 2.496855 -10.808307 0.771408 -1.897787 -0.369263 0.000000 0.000000 0.000000 -0.735839 10.775533 3.973221 -2.343957 -7.129403 -4.769794 9.990334 -0.840212 -1.064883 -9.732430 -12.017963 13.169731 4.249474 3.009300 -8.617411 0.000000 0.000000 0.000000 -3.261500 15.002546 3.810792 2.737516 -4.059244 -1.959233 1.329644 -0.561724 0.529526 0.132193 0.159844 -0.057912 0.000000 0.000000 0.000000 1.269892 2.000190 0.184703 1.059084 6.421215 4.278371 2.880753 -13.231093 -1.765314 0.000000 0.000000 0.000000 0.137758 0.760211 -0.276793 1.075554 -1.371789 -17.359882 3.522213 -3.541634 -0.922090 1.255048 -6.031674 -32.593417 2.188208 -59.222207 -0.204341 0.000000 0.000000 0.000000 1.380440 0.933353 -0.021495 -2.111808 2.325224 21.605582 -1.573824 -2.303600 0.518215 -0.964505 5.849770 54.299488 2.522203 11.716285 2.421915 0.000000 0.000000 0.000000 
5.060100 119.323112 -15.263630 0.000000 0.000000 0.000000 -1.345708 9.729865 4.258246 -2.809060 17.912789 5.464621 8.461080 4.630401 1.110112 -3.011953 2.483593 -10.804932 0.785178 -1.891889 -0.391608 0.000000 0.000000 0.000000 -0.744448 10.832409 3.989326 -2.288978 -7.089814 -4.793272 9.980183 -0.835263 -1.064099 -9.730785 -11.991521 13.199290 4.183000 3.017575 -8.636452 0.000000 0.000000 0.000000 -3.321605 15.022965 3.827419 2.755046 -4.061503 -1.942720 1.299560 -0.544850 0.543693 0.130366 0.163508 -0.062641 0.000000 0.000000 0.000000 1.286465 2.016484 0.201646 1.047222 6.393606 4.277870 2.911933 -13.374012 -1.819057 0.000000 0.000000 0.000000 0.105446 0.784708 -0.283894 1.117599 -1.343601 -17.351020 3.377632 -3.700225 -0.928742 1.394708 -5.994955 -32.530057 2.153740 -59.226141 -0.250540 0.000000 0.000000 0.000000 1.350934 0.948908 -0.013955 -2.100571 2.180875 21.513496 -1.880900 -2.360022 0.582765 -0.955081 6.080987 53.848511 2.556154 11.094457 2.505870 0.000000 0.000000 0.000000 
5.112169 119.331619 -15.211353 0.000000 0.000000 0.000000 -1.360967 9.892438 4.292601 -2.809629 17.955451 5.450575 8.382261 4.616168 1.095375 -2.976844 2.430192 -10.775303 0.792677 -1.879760 -0.396042 0.000000 0.000000 0.000000 -0.776307 10.972715 4.024972 -2.163428 -7.129190 -4.824026 9.949977 -0.853137 -1.058062 -9.766986 -11.982197 13.231515 4.116838 3.029930 -8.621907 0.000000 0.000000 0.000000 -3.379658 15.154199 3.862120 2.792650 -4.068632 -1.903626 1.251099 -0.521054 0.513270 0.110289 0.171401 -0.062062 0.000000 0.000000 0.000000 1.267926 2.029453 0.177769 1.004412 6.391172 4.341291 2.967285 -13.327728 -1.722354 0.000000 0.000000 0.000000 0.045564 0.812244 -0.340101 1.189074 -1.238793 -17.258221 3.228170 -3.848928 -0.947310 1.451675 -5.984205 -32.481753 2.344341 -59.226824 -0.098950 0.000000 0.000000 0.000000 1.292463 0.965173 -0.040661 -2.035731 2.155776 21.237319 -2.114030 -2.302389 0.699948 -0.822428 6.249933 53.472257 2.415942 10.570788 2.648940 0.000000 0.000000 0.000000 
5.185767 119.341675 -15.188496 0.000000 0.000000 0.000000 -1.381030 10.134504 4.342809 -2.812837 17.955273 5.413320 8.297751 4.581953 1.069704 -2.936541 2.342192 -10.715131 0.825299 -1.861742 -0.383395 0.000000 0.000000 0.000000 -0.817361 11.181415 4.073770 -1.996574 -7.236502 -4.870949 9.916000 -0.891281 -1.042669 -9.830135 -11.988176 13.270304 4.056492 3.046262 -8.580587 0.000000 0.000000 0.000000 -3.431163 15.376134 3.906017 2.856029 -4.082759 -1.842791 1.192900 -0.489617 0.444502 0.091808 0.180719 -0.057865 0.000000 0.000000 0.000000 1.220052 2.042363 0.119205 0.926465 6.420328 4.459340 3.029202 -13.092796 -1.498932 0.000000 0.000000 0.000000 -0.039662 0.843584 -0.434338 1.277375 -1.067723 -17.095926 3.122636 -3.978385 -0.917935 1.437215 -5.979146 -32.461536 2.759174 -59.214605 0.249321 0.000000 0.000000 0.000000 1.216786 0.986128 -0.100476 -1.928538 2.218418 20.789605 -2.246239 -2.245058 0.856003 -0.562545 6.347712 53.230581 2.107896 10.390481 2.828259 0.000000 0.000000 0.000000 
5.266811 119.345551 -15.192326 0.000000 0.000000 0.000000 -1.402280 10.439914 4.406294 -2.833551 17.903418 5.354124 8.228411 4.531243 1.042432 -2.906981 2.230489 -10.616870 0.905596 -1.836625 -0.358879 0.000000 0.000000 0.000000 -0.853951 11.448969 4.129816 -1.816957 -7.395149 -4.937688 9.893846 -0.942450 -1.015420 -9.906501 -11.997973 13.324336 3.993284 3.067871 -8.522559 0.000000 0.000000 0.000000 -3.467294 15.667235 3.950550 2.950744 -4.107451 -1.762498 1.135261 -0.449259 0.347762 0.086501 0.185191 -0.050308 0.000000 0.000000 0.000000 1.156754 2.064175 0.033235 0.791592 6.478846 4.606955 3.040416 -12.687209 -1.206437 0.000000 0.000000 0.000000 -0.131029 0.876438 -0.548464 1.369842 -0.855180 -16.873286 3.031989 -4.117729 -0.848278 1.364111 -5.964205 -32.483342 3.371151 -59.188213 0.768312 0.000000 0.000000 0.000000 1.137178 1.013176 -0.185530 -1.796332 2.345898 20.171323 -2.349472 -2.320128 1.032612 -0.054086 6.394216 53.121766 1.653193 10.891269 3.020467 0.000000 0.000000 0.000000 
